<svg
  xmlns="http://www.w3.org/2000/svg"
  width="24"
  height="24"
  viewBox="0 0 24 24"
  fill="none"
  stroke="currentColor"
  stroke-width="2"
  stroke-linecap="round"
  stroke-linejoin="round"
>
  <path d="M11.528 15.51a1.706 1.819 45 0 0-2.492.08c-.367.367-.544.888-.493 1.527A3 3 0 0 1 8.038 19a3 3 0 0 1 1.883-.505c.639.051 1.16-.126 1.527-.493a1.706 1.819 45 0 0 .08-2.492" />
  <path d="m12 15 3-3" />
  <path d="M14 2v4a2 2 0 0 0 2 2h4" />
  <path d="M15 2H6a2 2 0 0 0-2 2v16a2 2 0 0 0 2 2h12a2 2 0 0 0 2-2V7z" />
</svg>