<?xml version="1.0" encoding="UTF-8"?>
<svg width="24" height="24" fill="none" stroke="currentColor" stroke-linecap="round" stroke-linejoin="round" stroke-width="2" version="1.1" viewBox="0 0 24 24" xmlns="http://www.w3.org/2000/svg">
  <path d="M15 2H6a2 2 0 0 0-2 2v16a2 2 0 0 0 2 2h12a2 2 0 0 0 2-2V7Z"/>
  <path d="m14 2v4a2 2 0 0 0 2 2h4"/>
  <path d="m8 11 8 8" fill="none" stroke-linecap="round" stroke-linejoin="round" stroke-width="2"/>
  <path d="m16 11-8 8" fill="none" stroke-linecap="round" stroke-linejoin="round" stroke-width="2"/>
  <path d="m14 11h3" fill="none" stroke-linecap="round" stroke-linejoin="round" stroke-width="2"/>
  <path d="m7 11h3" fill="none" stroke-linecap="round" stroke-linejoin="round" stroke-width="2"/>
  <path d="m14 19h3" fill="none" stroke-linecap="round" stroke-linejoin="round" stroke-width="2"/>
  <path d="m7 19h3" fill="none" stroke-linecap="round" stroke-linejoin="round" stroke-width="2"/>
</svg>
