<?xml version="1.0" encoding="UTF-8"?>
<svg width="24" height="24" fill="none" stroke="currentColor" stroke-linecap="round" stroke-linejoin="round" stroke-width="2" version="1.1" viewBox="0 0 24 24" xmlns="http://www.w3.org/2000/svg">
  <path d="M15 2H6a2 2 0 0 0-2 2v16a2 2 0 0 0 2 2h12a2 2 0 0 0 2-2V7Z"/>
  <path d="m14 2v4a2 2 0 0 0 2 2h4"/>
  <path d="m11.705 15.257a1.8106 1.9306 45 0 0-2.6454 0.08483c-0.39003 0.39003-0.57766 0.94346-0.5239 1.6213 0.053767 0.67782-0.13993 1.4202-0.53602 1.9992 0.57899-0.39609 1.3214-0.58978 1.9992-0.53602 0.67782 0.05376 1.2312-0.13387 1.6213-0.5239a1.8106 1.9306 45 0 0 0.08483-2.6454z" stroke-width="2"/>
  <path d="m12 15 4-4" fill="none" stroke-linecap="round" stroke-linejoin="round" stroke-width="2"/>
</svg>
